<svg width="76" height="76" viewBox="0 0 76 76" fill="none" xmlns="http://www.w3.org/2000/svg">
<circle cx="38" cy="38" r="38" fill="black"/>
<path d="M41.7374 53.608C39.3687 53.608 37.1584 53.1963 35.1064 52.373C33.0544 51.537 31.2494 50.378 29.6914 48.896C28.146 47.414 26.9364 45.6913 26.0624 43.728C25.1884 41.752 24.7514 39.624 24.7514 37.344C24.7514 35.0767 25.1884 32.955 26.0624 30.979C26.949 29.003 28.165 27.274 29.7104 25.792C31.2557 24.31 33.048 23.1573 35.0874 22.334C37.1394 21.498 39.3434 21.08 41.6994 21.08C43.6374 21.08 45.474 21.3587 47.2094 21.916C48.9447 22.4733 50.4457 23.2143 51.7124 24.139L49.5274 28.357C48.5774 27.597 47.45 27.008 46.1454 26.59C44.8407 26.172 43.4664 25.963 42.0224 25.963C40.3124 25.963 38.7354 26.2543 37.2914 26.837C35.8474 27.4197 34.587 28.2303 33.5104 29.269C32.4464 30.295 31.623 31.4983 31.0404 32.879C30.4577 34.2597 30.1664 35.748 30.1664 37.344C30.1664 38.94 30.4577 40.4283 31.0404 41.809C31.623 43.1897 32.4464 44.3993 33.5104 45.438C34.587 46.464 35.8474 47.2683 37.2914 47.851C38.7354 48.4337 40.3124 48.725 42.0224 48.725C43.4664 48.725 44.8407 48.516 46.1454 48.098C47.45 47.68 48.5774 47.091 49.5274 46.331L51.7124 50.549C50.4837 51.4483 49.0017 52.183 47.2664 52.753C45.5437 53.323 43.7007 53.608 41.7374 53.608Z" fill="#F9FAFB"/>
</svg>
