<svg width="26" height="23" viewBox="0 0 26 23" fill="none" xmlns="http://www.w3.org/2000/svg">
<path d="M5.73526 0C2.56699 0 0 2.56699 0 5.73526C0 8.90353 2.56699 11.4705 5.73526 11.4705C8.90353 11.4705 11.4705 8.90353 11.4705 5.73526C11.4705 2.56699 8.90353 0 5.73526 0ZM9.06541 6.38279C9.06541 6.53542 8.94053 6.6603 8.7879 6.6603H6.6603V8.7879C6.6603 8.94053 6.53542 9.06541 6.38279 9.06541H5.08773C4.9351 9.06541 4.81022 8.94053 4.81022 8.7879V6.6603H2.68262C2.52999 6.6603 2.40511 6.53542 2.40511 6.38279V5.08773C2.40511 4.9351 2.52999 4.81022 2.68262 4.81022H4.81022V2.68262C4.81022 2.52999 4.9351 2.40511 5.08773 2.40511H6.38279C6.53542 2.40511 6.6603 2.52999 6.6603 2.68262V4.81022H8.7879C8.94053 4.81022 9.06541 4.9351 9.06541 5.08773V6.38279Z" fill="black"/>
<path d="M24.1554 11.3821L23.6541 10.0951L22.765 7.81275C22.0018 5.85378 20.1814 4.58826 18.1263 4.58826H12.4611C10.4065 4.58826 8.58562 5.85378 7.82239 7.81275L6.93336 10.0951L6.43197 11.3821C5.35603 11.8021 4.58789 12.8629 4.58789 14.1152V16.3137C4.58789 17.052 4.86267 17.7184 5.30161 18.2342V20.7107C5.30161 21.52 5.94084 22.1764 6.72905 22.1764H8.1565C8.94471 22.1764 9.58394 21.52 9.58394 20.7107V19.245H21.0035V20.7107C21.0035 21.52 21.6427 22.1764 22.4309 22.1764H23.8584C24.6466 22.1764 25.2858 21.52 25.2858 20.7107V18.2342C25.7247 17.7189 25.9995 17.0525 25.9995 16.3137V14.1152C25.9995 12.8629 25.2314 11.8021 24.1554 11.3821V11.3821ZM10.473 8.90147C10.7982 8.06695 11.5855 7.51961 12.4611 7.51961H18.1263C19.0019 7.51961 19.7893 8.06695 20.1144 8.90147L21.0035 11.1838H9.58394L10.473 8.90147ZM8.1565 16.3045C7.30003 16.3045 6.72905 15.7201 6.72905 14.8434C6.72905 13.9668 7.30003 13.3823 8.1565 13.3823C9.01296 13.3823 10.2977 14.6973 10.2977 15.574C10.2977 16.4506 9.01296 16.3045 8.1565 16.3045ZM22.4309 16.3045C21.5745 16.3045 20.2898 16.4506 20.2898 15.574C20.2898 14.6973 21.5745 13.3823 22.4309 13.3823C23.2874 13.3823 23.8584 13.9668 23.8584 14.8434C23.8584 15.7201 23.2874 16.3045 22.4309 16.3045V16.3045Z" fill="black"/>
</svg>
