<svg width="12" height="10" viewBox="0 0 12 10" fill="none" xmlns="http://www.w3.org/2000/svg">
<path d="M10.9665 3.86276L10.6855 3.13099L10.1872 1.83333C9.7595 0.719531 8.73925 0 7.5875 0H4.4125C3.261 0 2.2405 0.719531 1.81275 1.83333L1.3145 3.13099L1.0335 3.86276C0.4305 4.10156 0 4.70469 0 5.41667V6.66667C0 7.08646 0.154 7.46536 0.4 7.75859V9.16667C0.4 9.62682 0.75825 10 1.2 10H2C2.44175 10 2.8 9.62682 2.8 9.16667V8.33333H9.2V9.16667C9.2 9.62682 9.55825 10 10 10H10.8C11.2418 10 11.6 9.62682 11.6 9.16667V7.75859C11.846 7.46562 12 7.08672 12 6.66667V5.41667C12 4.70469 11.5695 4.10156 10.9665 3.86276V3.86276ZM3.29825 2.45234C3.4805 1.97786 3.92175 1.66667 4.4125 1.66667H7.5875C8.07825 1.66667 8.5195 1.97786 8.70175 2.45234L9.2 3.75H2.8L3.29825 2.45234ZM2 6.66146C1.52 6.66146 1.2 6.32917 1.2 5.83073C1.2 5.33229 1.52 5 2 5C2.48 5 3.2 5.74766 3.2 6.24609C3.2 6.74453 2.48 6.66146 2 6.66146ZM10 6.66146C9.52 6.66146 8.8 6.74453 8.8 6.24609C8.8 5.74766 9.52 5 10 5C10.48 5 10.8 5.33229 10.8 5.83073C10.8 6.32917 10.48 6.66146 10 6.66146V6.66146Z" fill="black"/>
</svg>
